<?xml version="1.0" encoding="UTF-8"?>
<svg width="16px" height="16px" viewBox="0 0 16 16" version="1.1" xmlns="http://www.w3.org/2000/svg" xmlns:xlink="http://www.w3.org/1999/xlink">
    <!-- Generator: Sketch 54.1 (76490) - https://sketchapp.com -->
    <title>logo</title>
    <desc>Created with Sketch.</desc>
    <g id="Page-1" stroke="none" stroke-width="1" fill="none" fill-rule="evenodd">
        <g id="Group" transform="translate(0.000000, 3.000000)" fill="#FFE100" fill-rule="nonzero">
            <path d="M5.60768272,6.73686771 L1.98663009,6.73686771 C1.36865571,6.73294785 0.839843368,7.17957989 0.7403143,7.78949929 L0.00768272098,12.1431835 C-0.0166970728,12.2638039 0.0176858017,12.3888325 0.1003143,12.4800256 C0.178028924,12.5816995 0.300944244,12.6384297 0.428735353,12.6316045 L7.16557746,12.6316045 C7.29044662,12.6356379 7.40959563,12.5791989 7.48557746,12.4800256 C7.56820596,12.3888325 7.60258883,12.2638039 7.57820904,12.1431835 L6.85399851,7.78949929 C6.75446944,7.17957989 6.2256571,6.73294785 5.60768272,6.73686771 Z" id="Path"></path>
            <path d="M15.2750511,7.78949929 C15.1755221,7.17957989 14.6467097,6.73294785 14.0287354,6.73686771 L10.4076827,6.73686771 C9.78970834,6.73294785 9.260896,7.17957989 9.16136693,7.78949929 L8.42873535,12.1431835 C8.40435556,12.2638039 8.43873843,12.3888325 8.52136693,12.4800256 C8.59734876,12.5791989 8.71649777,12.6356379 8.84136693,12.6316045 L15.578209,12.6316045 C15.7030782,12.6356379 15.8222272,12.5791989 15.898209,12.4800256 C15.9808375,12.3888325 16.0152204,12.2638039 15.9908406,12.1431835 L15.2750511,7.78949929 Z" id="Path"></path>
            <path d="M4.63926167,5.89476244 L11.3761038,5.89476244 C11.5009729,5.89879576 11.6201219,5.84235676 11.6961038,5.7431835 C11.7787323,5.6519904 11.8131151,5.52696177 11.7887354,5.40634139 L11.0645248,1.05265718 C10.9649958,0.442737786 10.4361834,-0.00389425665 9.81820904,2.56011349e-05 L6.19715641,2.56011349e-05 C5.57918202,-0.00389425665 5.05036968,0.442737786 4.95084062,1.05265718 L4.21820904,5.40634139 C4.19382924,5.52696177 4.22821212,5.6519904 4.31084062,5.7431835 C4.38855524,5.84485742 4.51147056,5.90158757 4.63926167,5.89476244 Z" id="Path"></path>
        </g>
    </g>
</svg>