<svg xmlns="http://www.w3.org/2000/svg" viewBox="0 0 25 31.25" x="0px" y="0px"><title>Gold</title><g data-name="Layer 9"><path d="M9.65,13H5.35a1.49,1.49,0,0,0-1.48,1.25L3,19.42a.46.46,0,0,0,.11.4A.46.46,0,0,0,3.5,20h8a.46.46,0,0,0,.38-.18.46.46,0,0,0,.11-.4l-.86-5.17A1.49,1.49,0,0,0,9.65,13Z"/><path d="M21.13,14.25A1.49,1.49,0,0,0,19.65,13h-4.3a1.49,1.49,0,0,0-1.48,1.25L13,19.42a.46.46,0,0,0,.11.4.46.46,0,0,0,.38.18h8a.46.46,0,0,0,.38-.18.46.46,0,0,0,.11-.4Z"/><path d="M8.5,12h8a.46.46,0,0,0,.38-.18.46.46,0,0,0,.11-.4l-.86-5.17A1.49,1.49,0,0,0,14.65,5h-4.3A1.49,1.49,0,0,0,8.87,6.25L8,11.42a.46.46,0,0,0,.11.4A.46.46,0,0,0,8.5,12Z"/></g><text x="0" y="40" fill="#000000" font-size="5px" font-weight="bold" font-family="'Helvetica Neue', Helvetica, Arial-Unicode, Arial, Sans-serif">Created by Caesar Rizky Kurniawan</text><text x="0" y="45" fill="#000000" font-size="5px" font-weight="bold" font-family="'Helvetica Neue', Helvetica, Arial-Unicode, Arial, Sans-serif">from the Noun Project</text></svg>